<?xml version="1.0" standalone="no"?>
<!DOCTYPE svg PUBLIC "-//W3C//DTD SVG 20010904//EN"
 "http://www.w3.org/TR/2001/REC-SVG-20010904/DTD/svg10.dtd">
<svg version="1.0" xmlns="http://www.w3.org/2000/svg"
 width="260.000000pt" height="260.000000pt" viewBox="0 0 260.000000 260.000000"
 preserveAspectRatio="xMidYMid meet">
<metadata>
Created by potrace 1.14, written by Peter Selinger 2001-2017
</metadata>
<g transform="translate(0.000000,260.000000) scale(0.100000,-0.100000)"
fill="#000000" stroke="none">
<path d="M1250 2354 c-8 -3 -29 -12 -47 -20 -17 -8 -36 -14 -41 -14 -16 0
-111 -109 -132 -152 -27 -56 -19 -68 46 -68 67 0 114 -19 137 -54 16 -23 24
-26 79 -26 58 0 65 2 100 37 36 36 43 38 113 41 53 3 75 8 79 19 8 20 -50 122
-88 156 -46 41 -50 44 -77 52 -13 4 -29 12 -36 17 -14 11 -112 20 -133 12z"/>
<path d="M1553 2032 c-50 -21 -106 -72 -128 -118 -9 -20 -15 -60 -15 -106 0
-89 26 -147 90 -195 37 -30 48 -33 107 -33 57 0 70 4 103 30 49 38 74 81 90
147 39 168 -109 332 -247 275z m135 -157 c36 -63 14 -138 -49 -170 -24 -13
-32 -13 -63 0 -70 30 -87 115 -35 178 29 35 35 38 77 35 42 -3 49 -7 70 -43z"/>
<path d="M895 2017 c-22 -12 -53 -42 -69 -67 -28 -41 -30 -50 -30 -141 0 -74
4 -102 15 -116 9 -10 19 -26 22 -35 3 -10 25 -31 48 -48 37 -26 50 -30 107
-30 59 0 69 3 107 35 65 53 85 100 85 198 0 73 -3 87 -28 123 -35 53 -61 77
-95 92 -45 19 -117 14 -162 -11z m145 -115 c30 -35 50 -72 50 -91 0 -38 -32
-88 -67 -105 -31 -15 -36 -15 -65 0 -49 25 -67 53 -68 104 0 63 41 110 97 110
24 0 44 -6 53 -18z"/>
<path d="M1262 1857 c-17 -18 -22 -36 -22 -75 0 -66 -37 -145 -90 -196 -22
-21 -40 -43 -40 -50 0 -15 42 -56 57 -56 6 0 14 -7 17 -15 7 -19 -14 -27 -114
-44 -41 -7 -92 -19 -113 -27 -20 -8 -46 -14 -57 -14 -11 0 -37 -9 -57 -20 -21
-11 -44 -20 -51 -20 -7 0 -23 -7 -36 -16 -16 -10 -26 -11 -30 -5 -7 10 6 37
44 96 11 17 24 40 29 52 5 11 14 24 20 27 5 3 12 20 16 36 5 24 1 37 -20 62
-53 62 -75 122 -75 199 0 52 -3 70 -12 67 -19 -6 -77 -97 -144 -223 -15 -27
-30 -52 -33 -55 -4 -3 -16 -23 -27 -45 -18 -36 -45 -82 -81 -140 -7 -11 -24
-40 -38 -65 -14 -25 -35 -61 -47 -80 -11 -19 -36 -64 -55 -100 -20 -36 -39
-69 -44 -74 -13 -15 -11 -103 4 -129 6 -12 23 -34 36 -50 21 -23 32 -27 78
-27 34 0 66 7 90 20 21 11 43 20 50 20 6 0 26 7 45 16 75 38 90 44 104 44 12
0 63 21 142 58 21 10 36 12 42 6 6 -6 11 -134 12 -304 l3 -295 429 -3 c337 -2
432 1 438 10 5 7 8 143 6 302 -3 311 -2 314 47 282 13 -9 31 -16 39 -16 15 0
75 -24 139 -56 16 -8 36 -14 46 -14 9 0 26 -7 37 -15 10 -8 26 -15 34 -15 8 0
33 -9 55 -20 58 -28 135 -27 160 3 69 78 68 163 -3 266 -13 20 -28 45 -33 56
-5 11 -13 27 -19 35 -33 51 -150 252 -150 259 0 4 -13 27 -30 49 -16 23 -30
45 -30 48 0 4 -19 39 -43 78 -24 39 -46 78 -50 86 -23 46 -69 111 -75 106 -2
-3 -6 -41 -8 -84 -4 -84 -30 -150 -81 -204 l-25 -26 26 -54 c15 -29 45 -81 67
-116 58 -92 45 -102 -66 -47 -38 19 -79 35 -90 35 -11 0 -29 6 -40 14 -19 12
-46 17 -182 33 -32 3 -53 10 -53 18 0 6 18 26 40 44 46 37 48 46 18 75 -39 36
-88 103 -88 119 0 9 -4 18 -9 21 -4 3 -11 33 -14 67 -4 44 -11 67 -28 85 -28
30 -40 30 -67 1z"/>
</g>
</svg>
